<?xml version="1.0" ?><svg viewBox="0 0 63 63" xmlns="http://www.w3.org/2000/svg"><defs><style>.cls-1{fill:#428dff;}.cls-2{fill:none;stroke:#428dff;stroke-linecap:round;stroke-miterlimit:10;}</style></defs><title/><g data-name="Layer 4" id="Layer_4"><path class="cls-1" d="M17.9,41.25V39.07a1.54,1.54,0,0,1,.5-1.27,1.92,1.92,0,0,1,1.28-.4,2.06,2.06,0,0,1,1.31.38,1.14,1.14,0,0,1,.5,1,.34.34,0,0,1-.42.42q-.42,0-.42-.27c0-.53-.35-.8-.94-.8a.86.86,0,0,0-1,1v2.18a.86.86,0,0,0,1,1,1.35,1.35,0,0,0,.48-.07.52.52,0,0,0,.27-.23,1.14,1.14,0,0,0,.12-.26,1.78,1.78,0,0,0,0-.28c0-.18.15-.26.41-.26a.58.58,0,0,1,.34.08.47.47,0,0,1,.09.33,1.21,1.21,0,0,1-.5,1,2.09,2.09,0,0,1-1.32.39,2,2,0,0,1-1.28-.41A1.56,1.56,0,0,1,17.9,41.25Zm4.09.8a.45.45,0,0,1,.11-.28.33.33,0,0,1,.26-.15.4.4,0,0,1,.21.1,2.32,2.32,0,0,1,.25.21,1.18,1.18,0,0,0,.36.2,1.35,1.35,0,0,0,.55.1,1.24,1.24,0,0,0,.73-.2.72.72,0,0,0,.28-.6.77.77,0,0,0-.27-.6,2,2,0,0,0-.65-.38l-.76-.31a1.71,1.71,0,0,1-.66-.5,1.27,1.27,0,0,1-.26-.83,1.41,1.41,0,0,1,.16-.69,1.16,1.16,0,0,1,.44-.44,2,2,0,0,1,.59-.23,2.76,2.76,0,0,1,.65-.07l.46,0a3.73,3.73,0,0,1,.46.09,1,1,0,0,1,.39.17.31.31,0,0,1,.15.25.46.46,0,0,1-.1.28.29.29,0,0,1-.25.15.49.49,0,0,1-.22-.08l-.36-.14a1.7,1.7,0,0,0-.53-.07,1.43,1.43,0,0,0-.73.17.56.56,0,0,0-.27.52.52.52,0,0,0,.15.38,1,1,0,0,0,.37.27l.51.21a4.37,4.37,0,0,1,.55.24,2.89,2.89,0,0,1,.51.31,1.4,1.4,0,0,1,.37.48,1.81,1.81,0,0,1,.14.72,1.42,1.42,0,0,1-.5,1.18,2,2,0,0,1-1.32.4,2.54,2.54,0,0,1-1.25-.28C22.16,42.45,22,42.25,22,42.05Zm4.1,0a.4.4,0,0,1,.11-.28.31.31,0,0,1,.25-.15.46.46,0,0,1,.22.1l.24.21a1.13,1.13,0,0,0,.37.2,1.33,1.33,0,0,0,.54.1,1.27,1.27,0,0,0,.74-.2.72.72,0,0,0,.27-.6.77.77,0,0,0-.27-.6,1.89,1.89,0,0,0-.65-.38l-.76-.31a1.75,1.75,0,0,1-.65-.5,1.27,1.27,0,0,1-.27-.83,1.41,1.41,0,0,1,.17-.69,1,1,0,0,1,.44-.44,1.86,1.86,0,0,1,.59-.23,2.7,2.7,0,0,1,.65-.07l.45,0a3.89,3.89,0,0,1,.47.09,1,1,0,0,1,.38.17.31.31,0,0,1,.15.25.51.51,0,0,1-.09.28.3.3,0,0,1-.26.15.51.51,0,0,1-.21-.08l-.37-.14a1.64,1.64,0,0,0-.52-.07,1.41,1.41,0,0,0-.73.17.62.62,0,0,0-.13.9,1.09,1.09,0,0,0,.38.27l.5.21a3.93,3.93,0,0,1,.56.24,2.8,2.8,0,0,1,.5.31,1.19,1.19,0,0,1,.37.48,1.66,1.66,0,0,1,.15.72,1.45,1.45,0,0,1-.5,1.18,2,2,0,0,1-1.32.4,2.58,2.58,0,0,1-1.26-.28Q26.09,42.35,26.09,42.05Z"/><path class="cls-2" d="M31.9,25.93h2v-1.5a3.5,3.5,0,0,1,3.5-3.5h0a3.5,3.5,0,0,1,3.5,3.5v16.5a2,2,0,0,0,2,2h0a2,2,0,0,0,2-2v-3m-24-7v-3m16-7h-15a4,4,0,0,0-4,4v1h11"/></g></svg>