<svg id="Layer_1" enable-background="new 0 0 510 510" height="512" viewBox="0 0 510 510" width="512" xmlns="http://www.w3.org/2000/svg"><g><path d="m66 360c-28.121 0-51-26.916-51-60s22.879-60 51-60c13.426 0 25.658 5.976 35.376 17.282l3.624 4.217v77.759l-3.815 4.269c-9.492 10.622-21.988 16.473-35.185 16.473z" fill="#fb9"/><path d="m444 360c-13.197 0-25.693-5.851-35.186-16.474l-3.814-4.268v-77.759l3.624-4.217c9.718-11.306 21.95-17.282 35.376-17.282 28.121 0 51 26.916 51 60s-22.879 60-51 60z" fill="#ffaa80"/><path d="m93.81 301.968-47.171-110.066c-28.235-65.887 8.34-142.556 79.073-160.761 20.233-5.208 38.934-9.885 55.584-13.903l9.701 28.248c-25.671 11.614-40.997 28.255-40.997 44.514 0 17.403 17.043 34.784 45.59 46.494l-9.533 28.378c-11.328-3.001-19.595-5.424-21.924-6.115-18.645-3.688-36.742 7.766-41.334 26.289z" fill="#433f43"/><path d="m459.333 91-.568-2.839-1.583-2.423c-2.183-3.34-49.646-83.738-187.182-83.738-5.07 0-10.072-1.853-15-1.572-76.815 4.381-135 42.147-135 89.572s58.185 85.191 135 89.572c4.928.281 9.93-3.572 15-3.572 12.447 0 25.183-1.902 37.752-3.795l56.698-12.936 1.262-.555c10.466-4.605 22.582 1.313 25.363 12.429l24.207 108.524 22.931-45.546c23.542-47.084 31.443-91.502 21.12-143.121z" fill="#554e55"/><path d="m307.752 177.205 50.698-11.936 1.262-.555c10.466-4.605 22.582 1.313 25.363 12.429l30.207 120.833 28.929-57.858c23.542-47.083 30.821-101.441 20.498-153.061l-.568-2.839-1.583-2.423c-2.183-3.339-55.022-81.795-192.558-81.795-5.07 0-10.072.147-15 .428v179.144c29.293 1.672 49.777-2.079 52.752-2.367z" fill="#433f43"/><path d="m408 169.867c-3.473-13.891-14.143-23.533-27-29.834-12.408-6.081-19.226-3.186-31.985 1.967l-43.064 9.55c-10.441 1.518-25.079 2.95-35.95 2.95-5.055 0-10.061-4.663-15-4.984-12.541-.814-24.65-2.652-36.035-5.459-8.205-2.023-46.582-15.947-59.563-15.947-30.367 0-58.16 19.215-65.723 49.716l-18.68 80.228v86.946c0 90.981 74.019 165 165 165h15l15-5.5c90.981 0 157.5-68.519 157.5-159.5l.201-90z" fill="#ffccb3"/><path d="m435 345v-86.459l-20.821-88.674c-3.473-13.891-12.838-25.471-25.695-31.771-12.408-6.081-25.335-4.956-39.469-1.425 0 0-35.067 8.792-46.901 11.041-10.366 1.97-21.243 2.288-32.114 2.288-5.055 0-10.061-.163-15-.484v360.484h15c90.981 0 165-74.019 165-165z" fill="#fb9"/><path d="m255 375h-60c0 33.137 26.863 60 60 60 19.583 0 56.25-28.5 56.25-50.667v-5.583z" fill="#fa686c"/><path d="m255 375v60c33.137 0 60-26.863 60-60z" fill="#e40c57"/><circle cx="195.295" cy="270" fill="#edf5ff" r="45"/><circle cx="195.295" cy="270" fill="#554e55" r="15"/><circle cx="314.705" cy="270" fill="#d5e8fe" r="45"/><circle cx="314.705" cy="270" fill="#433f43" r="15"/></g></svg>